<?xml version="1.0" standalone="no"?><!DOCTYPE svg PUBLIC "-//W3C//DTD SVG 1.1//EN" "http://www.w3.org/Graphics/SVG/1.1/DTD/svg11.dtd"><svg t="1586177617807" class="icon" viewBox="0 0 1024 1024" version="1.1" xmlns="http://www.w3.org/2000/svg" p-id="13121" xmlns:xlink="http://www.w3.org/1999/xlink" width="200" height="200"><defs><style type="text/css"></style></defs><path d="M455.936 793.6H396.8v-147.413333a27.008 27.008 0 0 1 23.594667-29.525334h11.818666a27.008 27.008 0 0 1 23.594667 29.525334V793.6z m171.264-300.928l-23.594667 23.594667 182.997334 153.6a72.874667 72.874667 0 0 1 23.594666 47.232v129.877333a65.536 65.536 0 0 1-64.938666 64.938667H107.605333A65.536 65.536 0 0 1 42.666667 846.890667v-129.877334a53.674667 53.674667 0 0 1 23.594666-47.146666l182.997334-153.6a294.4 294.4 0 0 1-70.826667-153.6 256.384 256.384 0 0 1 59.050667-206.506667A240.64 240.64 0 0 1 426.410667 85.333333a245.76 245.76 0 0 1 194.816 70.826667 261.290667 261.290667 0 0 1 53.12 206.506667 311.466667 311.466667 0 0 1-47.146667 130.005333z m-106.282667 29.525333l41.344-47.232a270.165333 270.165333 0 0 0 58.965334-123.989333 194.773333 194.773333 0 0 0-41.344-159.402667 226.901333 226.901333 0 0 0-153.6-47.232 220.928 220.928 0 0 0-147.456 47.274667 226.133333 226.133333 0 0 0-41.344 165.290667 237.610667 237.610667 0 0 0 53.12 118.058666l47.232 47.232-236.117334 194.816v129.877334a5.802667 5.802667 0 0 0 5.888 5.888h631.68c5.888 0 5.888 0 5.888-5.888v-129.877334z m407.338667 330.581334V734.72a67.029333 67.029333 0 0 0-17.706667-47.232l-141.696-141.696a274.304 274.304 0 0 0 53.12-141.696 250.496 250.496 0 0 0-41.173333-188.885333 150.528 150.528 0 0 1 70.826667 47.232 201.173333 201.173333 0 0 1 35.413333 159.402666 237.696 237.696 0 0 1-47.232 118.058667l123.989333 118.058667a51.2 51.2 0 0 1 17.706667 35.413333V793.6a46.549333 46.549333 0 0 1-47.232 47.232h-5.888z" p-id="13122"></path></svg>