<?xml version="1.0" standalone="no"?><!DOCTYPE svg PUBLIC "-//W3C//DTD SVG 1.1//EN" "http://www.w3.org/Graphics/SVG/1.1/DTD/svg11.dtd"><svg t="1586176898781" class="icon" viewBox="0 0 1024 1024" version="1.1" xmlns="http://www.w3.org/2000/svg" p-id="6373" xmlns:xlink="http://www.w3.org/1999/xlink" width="200" height="200"><defs><style type="text/css"></style></defs><path d="M754.4 842.7H269.2c-15.9 0-28 12.1-28 28s12.1 28 28 28h485.1c15.9 0 28-12.1 28-28s-12.1-28-27.9-28z m0 0M819.7 124.4H203.9C126.5 124.4 64 186.9 64 264.3v343.3c0 77.4 62.5 139.9 139.9 139.9h279.9v95.2h56v-95.2h279.9c77.4 0 139.9-62.5 139.9-139.9V264.3c0-77.4-62.5-139.9-139.9-139.9z m83.9 483.2c0 46.6-37.3 84-84 84H203.9c-46.6 0-84-37.3-84-84V264.3c0-46.6 37.3-84 84-84h615.7c46.6 0 84 37.3 84 84v343.3z m0 0" p-id="6374"></path><path d="M343.9 422.9c-15.9 0-28 12.1-28 28v93.3c0 15.9 12.1 28 28 28s28-12.1 28-28v-93.3c0-15.8-12.2-28-28-28z m167.9-74.6c-15.9 0-28 12.1-28 28v167.9c0 15.9 12.1 28 28 28s28-12.1 28-28V376.3c0-15.9-12.1-28-28-28z m167.9-46.6c-15.9 0-28 12.1-28 28v214.6c0 15.9 12.1 28 28 28s28-12.1 28-28V329.6c0-15.8-12.1-27.9-28-27.9z m0 0" p-id="6375"></path></svg>