<?xml version="1.0" standalone="no"?><!DOCTYPE svg PUBLIC "-//W3C//DTD SVG 1.1//EN" "http://www.w3.org/Graphics/SVG/1.1/DTD/svg11.dtd"><svg t="1586185654759" class="icon" viewBox="0 0 1024 1024" version="1.1" xmlns="http://www.w3.org/2000/svg" p-id="7614" xmlns:xlink="http://www.w3.org/1999/xlink" width="200" height="200"><defs><style type="text/css"></style></defs><path d="M512 32C246.912 32 32 246.848 32 512s214.912 480 480 480c265.152 0 480-214.848 480-480S777.152 32 512 32z m0 896a416 416 0 1 1 0-832 416 416 0 0 1 0 832z m-20.224-192.704a44.224 44.224 0 0 0-32.64 13.888 47.232 47.232 0 0 0-13.76 34.496c0 13.952 4.608 25.472 13.888 34.624s20.032 13.696 32.512 13.696c12.864 0 23.936-4.608 33.216-13.888s13.888-20.736 13.888-34.432a46.912 46.912 0 0 0-13.888-34.304 44.992 44.992 0 0 0-33.216-14.08z m25.088-511.552c-47.616 0-91.904 13.312-132.736 39.936v77.696c35.264-36.8 76.096-55.168 122.56-55.168 29.44 0 52.672 8.128 69.888 24.32 17.152 16.192 25.664 36.928 25.664 62.016 0 23.616-5.504 44.48-16.576 62.656s-29.504 37.632-55.296 58.432c-26.24 21.312-44.48 41.536-54.656 60.672-10.176 19.2-15.296 42.048-15.296 68.736v32.704h63.488v-29.696c0-22.784 4.224-40.576 12.736-53.248s25.152-29.824 49.984-51.456c30.848-26.624 52.864-51.968 65.984-76.096 13.12-24.064 19.776-50.88 19.776-80.32 0-42.112-14.08-76.16-42.176-102.208-28.096-25.984-65.856-38.976-113.344-38.976z" fill="" p-id="7615"></path></svg>